<?xml version="1.0" standalone="no"?>
<!DOCTYPE svg PUBLIC "-//W3C//DTD SVG 20010904//EN"
 "http://www.w3.org/TR/2001/REC-SVG-20010904/DTD/svg10.dtd">
<svg version="1.0" xmlns="http://www.w3.org/2000/svg"
 width="1015.000000pt" height="1015.000000pt" viewBox="0 0 1015.000000 1015.000000"
 preserveAspectRatio="xMidYMid meet">

<g transform="translate(0.000000,1015.000000) scale(0.100000,-0.100000)"
fill="#000000" stroke="none">
<path d="M290 8845 l0 -1015 1015 0 1015 0 0 1015 0 1015 -1015 0 -1015 0 0
-1015z m1740 0 l0 -725 -725 0 -725 0 0 725 0 725 725 0 725 0 0 -725z"/>
<path d="M870 8845 l0 -435 435 0 435 0 0 435 0 435 -435 0 -435 0 0 -435z"/>
<path d="M3190 9570 l0 -290 145 0 145 0 0 290 0 290 -145 0 -145 0 0 -290z"/>
<path d="M3770 9715 l0 -145 145 0 145 0 0 -145 0 -145 -145 0 -145 0 0 -290
0 -290 145 0 145 0 0 -145 0 -145 -290 0 -290 0 0 -145 0 -145 -145 0 -145 0
0 290 0 290 145 0 145 0 0 145 0 145 -435 0 -435 0 0 -145 0 -145 145 0 145 0
0 -145 0 -145 -145 0 -145 0 0 -290 0 -290 145 0 145 0 0 -145 0 -145 -435 0
-435 0 0 -145 0 -145 -145 0 -145 0 0 145 0 145 -725 0 -725 0 0 -290 0 -290
145 0 145 0 0 145 0 145 145 0 145 0 0 -145 0 -145 145 0 145 0 0 -145 0 -145
-145 0 -145 0 0 -145 0 -145 145 0 145 0 0 145 0 145 145 0 145 0 0 145 0 145
290 0 290 0 0 -145 0 -145 145 0 145 0 0 145 0 145 290 0 290 0 0 145 0 145
145 0 145 0 0 -290 0 -290 145 0 145 0 0 290 0 290 145 0 145 0 0 -145 0 -145
290 0 290 0 0 -290 0 -290 -145 0 -145 0 0 145 0 145 -145 0 -145 0 0 -290 0
-290 435 0 435 0 0 290 0 290 145 0 145 0 0 -145 0 -145 145 0 145 0 0 -145 0
-145 145 0 145 0 0 -145 0 -145 -145 0 -145 0 0 -145 0 -145 -145 0 -145 0 0
145 0 145 -290 0 -290 0 0 -290 0 -290 -145 0 -145 0 0 -145 0 -145 -145 0
-145 0 0 290 0 290 145 0 145 0 0 145 0 145 -290 0 -290 0 0 -145 0 -145 -145
0 -145 0 0 -145 0 -145 145 0 145 0 0 -145 0 -145 -290 0 -290 0 0 290 0 290
-145 0 -145 0 0 -435 0 -435 145 0 145 0 0 -145 0 -145 290 0 290 0 0 290 0
290 145 0 145 0 0 -145 0 -145 145 0 145 0 0 -145 0 -145 -145 0 -145 0 0
-290 0 -290 580 0 580 0 0 -145 0 -145 -145 0 -145 0 0 -145 0 -145 -145 0
-145 0 0 145 0 145 -435 0 -435 0 0 -290 0 -290 -145 0 -145 0 0 290 0 290
-145 0 -145 0 0 290 0 290 -435 0 -435 0 0 -145 0 -145 145 0 145 0 0 -145 0
-145 -290 0 -290 0 0 -145 0 -145 -145 0 -145 0 0 145 0 145 -145 0 -145 0 0
145 0 145 -145 0 -145 0 0 -145 0 -145 145 0 145 0 0 -145 0 -145 -145 0 -145
0 0 -145 0 -145 145 0 145 0 0 145 0 145 145 0 145 0 0 -145 0 -145 145 0 145
0 0 -145 0 -145 435 0 435 0 0 -290 0 -290 145 0 145 0 0 -145 0 -145 -145 0
-145 0 0 -725 0 -725 290 0 290 0 0 145 0 145 145 0 145 0 0 290 0 290 145 0
145 0 0 -290 0 -290 145 0 145 0 0 -145 0 -145 290 0 290 0 0 145 0 145 290 0
290 0 0 -145 0 -145 145 0 145 0 0 145 0 145 -145 0 -145 0 0 145 0 145 -145
0 -145 0 0 145 0 145 145 0 145 0 0 145 0 145 145 0 145 0 0 -290 0 -290 145
0 145 0 0 145 0 145 290 0 290 0 0 145 0 145 -435 0 -435 0 0 145 0 145 -145
0 -145 0 0 145 0 145 145 0 145 0 0 145 0 145 -145 0 -145 0 0 145 0 145 145
0 145 0 0 145 0 145 145 0 145 0 0 145 0 145 -145 0 -145 0 0 145 0 145 435 0
435 0 0 -145 0 -145 -145 0 -145 0 0 -290 0 -290 -145 0 -145 0 0 -145 0 -145
145 0 145 0 0 -290 0 -290 580 0 580 0 0 -145 0 -145 -145 0 -145 0 0 -145 0
-145 -145 0 -145 0 0 -145 0 -145 -290 0 -290 0 0 -145 0 -145 290 0 290 0 0
-145 0 -145 435 0 435 0 0 145 0 145 145 0 145 0 0 -145 0 -145 290 0 290 0 0
145 0 145 -145 0 -145 0 0 290 0 290 -145 0 -145 0 0 -145 0 -145 -145 0 -145
0 0 145 0 145 -145 0 -145 0 0 145 0 145 580 0 580 0 0 -145 0 -145 290 0 290
0 0 -145 0 -145 -145 0 -145 0 0 -145 0 -145 290 0 290 0 0 -145 0 -145 145 0
145 0 0 145 0 145 -145 0 -145 0 0 145 0 145 145 0 145 0 0 145 0 145 -290 0
-290 0 0 145 0 145 -145 0 -145 0 0 145 0 145 290 0 290 0 0 -145 0 -145 145
0 145 0 0 435 0 435 145 0 145 0 0 290 0 290 -145 0 -145 0 0 -290 0 -290
-145 0 -145 0 0 145 0 145 -145 0 -145 0 0 145 0 145 145 0 145 0 0 145 0 145
145 0 145 0 0 145 0 145 145 0 145 0 0 145 0 145 -145 0 -145 0 0 145 0 145
-145 0 -145 0 0 145 0 145 145 0 145 0 0 145 0 145 145 0 145 0 0 145 0 145
-145 0 -145 0 0 145 0 145 -145 0 -145 0 0 145 0 145 145 0 145 0 0 145 0 145
145 0 145 0 0 145 0 145 -290 0 -290 0 0 -290 0 -290 -145 0 -145 0 0 -145 0
-145 145 0 145 0 0 -435 0 -435 -145 0 -145 0 0 290 0 290 -145 0 -145 0 0
145 0 145 -290 0 -290 0 0 145 0 145 -145 0 -145 0 0 145 0 145 145 0 145 0 0
145 0 145 435 0 435 0 0 145 0 145 145 0 145 0 0 145 0 145 145 0 145 0 0 145
0 145 145 0 145 0 0 145 0 145 -145 0 -145 0 0 145 0 145 -145 0 -145 0 0
-145 0 -145 -145 0 -145 0 0 145 0 145 -145 0 -145 0 0 -145 0 -145 145 0 145
0 0 -145 0 -145 -290 0 -290 0 0 -290 0 -290 -145 0 -145 0 0 435 0 435 145 0
145 0 0 145 0 145 -145 0 -145 0 0 -145 0 -145 -145 0 -145 0 0 145 0 145
-145 0 -145 0 0 -145 0 -145 145 0 145 0 0 -145 0 -145 -145 0 -145 0 0 -145
0 -145 -290 0 -290 0 0 145 0 145 145 0 145 0 0 145 0 145 -145 0 -145 0 0
-145 0 -145 -145 0 -145 0 0 -145 0 -145 -290 0 -290 0 0 -145 0 -145 -145 0
-145 0 0 -145 0 -145 -145 0 -145 0 0 145 0 145 -145 0 -145 0 0 145 0 145
-145 0 -145 0 0 145 0 145 290 0 290 0 0 145 0 145 145 0 145 0 0 -145 0 -145
290 0 290 0 0 290 0 290 290 0 290 0 0 435 0 435 145 0 145 0 0 -290 0 -290
145 0 145 0 0 290 0 290 -145 0 -145 0 0 145 0 145 145 0 145 0 0 145 0 145
-145 0 -145 0 0 145 0 145 -145 0 -145 0 0 -145 0 -145 -145 0 -145 0 0 145 0
145 -145 0 -145 0 0 145 0 145 435 0 435 0 0 145 0 145 -1160 0 -1160 0 0
-145 0 -145 -290 0 -290 0 0 145 0 145 -290 0 -290 0 0 -145z m1740 -290 l0
-145 145 0 145 0 0 145 0 145 145 0 145 0 0 -145 0 -145 -145 0 -145 0 0 -290
0 -290 -145 0 -145 0 0 -145 0 -145 290 0 290 0 0 145 0 145 145 0 145 0 0
145 0 145 145 0 145 0 0 -145 0 -145 145 0 145 0 0 -145 0 -145 -145 0 -145 0
0 145 0 145 -145 0 -145 0 0 -145 0 -145 -145 0 -145 0 0 -290 0 -290 145 0
145 0 0 145 0 145 145 0 145 0 0 -145 0 -145 -145 0 -145 0 0 -145 0 -145
-145 0 -145 0 0 -145 0 -145 -145 0 -145 0 0 145 0 145 145 0 145 0 0 145 0
145 -145 0 -145 0 0 145 0 145 -145 0 -145 0 0 -290 0 -290 -145 0 -145 0 0
-145 0 -145 -145 0 -145 0 0 -145 0 -145 -290 0 -290 0 0 145 0 145 290 0 290
0 0 145 0 145 145 0 145 0 0 580 0 580 -145 0 -145 0 0 -145 0 -145 -290 0
-290 0 0 -435 0 -435 -145 0 -145 0 0 -145 0 -145 -145 0 -145 0 0 290 0 290
-145 0 -145 0 0 145 0 145 145 0 145 0 0 -145 0 -145 145 0 145 0 0 290 0 290
145 0 145 0 0 145 0 145 290 0 290 0 0 145 0 145 -145 0 -145 0 0 145 0 145
290 0 290 0 0 145 0 145 145 0 145 0 0 -145z m-1160 -290 l0 -145 -145 0 -145
0 0 145 0 145 145 0 145 0 0 -145z m-1160 -1160 l0 -145 -145 0 -145 0 0 145
0 145 145 0 145 0 0 -145z m1740 0 l0 -145 -145 0 -145 0 0 145 0 145 145 0
145 0 0 -145z m-1450 -580 l0 -145 -145 0 -145 0 0 145 0 145 145 0 145 0 0
-145z m-1160 -290 l0 -145 -145 0 -145 0 0 145 0 145 145 0 145 0 0 -145z
m6960 -290 l0 -145 -145 0 -145 0 0 -145 0 -145 -145 0 -145 0 0 145 0 145
145 0 145 0 0 145 0 145 145 0 145 0 0 -145z m-2610 -580 l0 -145 145 0 145 0
0 145 0 145 290 0 290 0 0 -145 0 -145 145 0 145 0 0 145 0 145 145 0 145 0 0
-145 0 -145 -145 0 -145 0 0 -145 0 -145 -145 0 -145 0 0 -290 0 -290 -145 0
-145 0 0 145 0 145 -290 0 -290 0 0 290 0 290 -290 0 -290 0 0 145 0 145 290
0 290 0 0 -145z m-580 -580 l0 -145 145 0 145 0 0 -145 0 -145 145 0 145 0 0
-145 0 -145 -290 0 -290 0 0 145 0 145 -145 0 -145 0 0 -145 0 -145 -145 0
-145 0 0 -290 0 -290 145 0 145 0 0 145 0 145 145 0 145 0 0 -145 0 -145 145
0 145 0 0 -145 0 -145 145 0 145 0 0 290 0 290 435 0 435 0 0 145 0 145 145 0
145 0 0 145 0 145 145 0 145 0 0 -145 0 -145 290 0 290 0 0 -145 0 -145 -290
0 -290 0 0 145 0 145 -145 0 -145 0 0 -145 0 -145 -145 0 -145 0 0 -145 0
-145 435 0 435 0 0 -145 0 -145 -145 0 -145 0 0 -145 0 -145 -145 0 -145 0 0
-145 0 -145 290 0 290 0 0 145 0 145 145 0 145 0 0 290 0 290 145 0 145 0 0
-145 0 -145 145 0 145 0 0 -435 0 -435 -145 0 -145 0 0 290 0 290 -145 0 -145
0 0 -290 0 -290 -290 0 -290 0 0 -145 0 -145 -145 0 -145 0 0 290 0 290 -145
0 -145 0 0 -290 0 -290 -145 0 -145 0 0 145 0 145 -145 0 -145 0 0 -145 0
-145 -145 0 -145 0 0 -145 0 -145 -145 0 -145 0 0 145 0 145 145 0 145 0 0
290 0 290 290 0 290 0 0 145 0 145 290 0 290 0 0 145 0 145 -580 0 -580 0 0
-145 0 -145 -435 0 -435 0 0 145 0 145 -870 0 -870 0 0 145 0 145 145 0 145 0
0 145 0 145 -145 0 -145 0 0 145 0 145 145 0 145 0 0 -145 0 -145 145 0 145 0
0 145 0 145 145 0 145 0 0 -145 0 -145 145 0 145 0 0 145 0 145 145 0 145 0 0
145 0 145 -145 0 -145 0 0 145 0 145 290 0 290 0 0 145 0 145 145 0 145 0 0
-145z m-3770 -2610 l0 -145 -145 0 -145 0 0 145 0 145 145 0 145 0 0 -145z
m580 0 l0 -145 145 0 145 0 0 -145 0 -145 -290 0 -290 0 0 290 0 290 145 0
145 0 0 -145z m1450 0 l0 -145 -290 0 -290 0 0 145 0 145 290 0 290 0 0 -145z
m1160 0 l0 -145 -145 0 -145 0 0 -145 0 -145 -145 0 -145 0 0 -145 0 -145
-290 0 -290 0 0 -290 0 -290 -145 0 -145 0 0 -145 0 -145 290 0 290 0 0 145 0
145 290 0 290 0 0 -145 0 -145 -145 0 -145 0 0 -145 0 -145 -145 0 -145 0 0
-145 0 -145 -145 0 -145 0 0 -145 0 -145 -145 0 -145 0 0 290 0 290 -145 0
-145 0 0 145 0 145 -145 0 -145 0 0 145 0 145 -145 0 -145 0 0 -435 0 -435
-145 0 -145 0 0 435 0 435 145 0 145 0 0 145 0 145 -145 0 -145 0 0 145 0 145
290 0 290 0 0 145 0 145 145 0 145 0 0 -435 0 -435 145 0 145 0 0 435 0 435
435 0 435 0 0 290 0 290 290 0 290 0 0 -145z m1740 -580 l0 -145 -145 0 -145
0 0 -145 0 -145 -290 0 -290 0 0 145 0 145 290 0 290 0 0 145 0 145 145 0 145
0 0 -145z m1160 -290 l0 -435 -435 0 -435 0 0 435 0 435 435 0 435 0 0 -435z
m580 145 l0 -290 -145 0 -145 0 0 290 0 290 145 0 145 0 0 -290z m-1740 -1305
l0 -145 145 0 145 0 0 -145 0 -145 -290 0 -290 0 0 290 0 290 145 0 145 0 0
-145z"/>
<path d="M5220 8845 l0 -145 145 0 145 0 0 145 0 145 -145 0 -145 0 0 -145z"/>
<path d="M6960 5945 l0 -145 145 0 145 0 0 145 0 145 -145 0 -145 0 0 -145z"/>
<path d="M4640 4495 l0 -145 145 0 145 0 0 145 0 145 -145 0 -145 0 0 -145z"/>
<path d="M7830 2175 l0 -145 145 0 145 0 0 145 0 145 -145 0 -145 0 0 -145z"/>
<path d="M7830 8845 l0 -1015 1015 0 1015 0 0 1015 0 1015 -1015 0 -1015 0 0
-1015z m1740 0 l0 -725 -725 0 -725 0 0 725 0 725 725 0 725 0 0 -725z"/>
<path d="M8410 8845 l0 -435 435 0 435 0 0 435 0 435 -435 0 -435 0 0 -435z"/>
<path d="M2610 9425 l0 -145 145 0 145 0 0 145 0 145 -145 0 -145 0 0 -145z"/>
<path d="M290 6525 l0 -145 145 0 145 0 0 145 0 145 -145 0 -145 0 0 -145z"/>
<path d="M2610 6525 l0 -145 145 0 145 0 0 -145 0 -145 -145 0 -145 0 0 -145
0 -145 145 0 145 0 0 145 0 145 290 0 290 0 0 145 0 145 -290 0 -290 0 0 145
0 145 -145 0 -145 0 0 -145z"/>
<path d="M1740 6235 l0 -145 -145 0 -145 0 0 -435 0 -435 290 0 290 0 0 -145
0 -145 145 0 145 0 0 145 0 145 -145 0 -145 0 0 145 0 145 145 0 145 0 0 145
0 145 -145 0 -145 0 0 145 0 145 145 0 145 0 0 145 0 145 -290 0 -290 0 0
-145z"/>
<path d="M870 5945 l0 -145 -145 0 -145 0 0 -145 0 -145 -145 0 -145 0 0 -145
0 -145 435 0 435 0 0 145 0 145 -145 0 -145 0 0 145 0 145 145 0 145 0 0 145
0 145 -145 0 -145 0 0 -145z"/>
<path d="M8410 5655 l0 -145 145 0 145 0 0 145 0 145 -145 0 -145 0 0 -145z"/>
<path d="M290 4640 l0 -290 145 0 145 0 0 290 0 290 -145 0 -145 0 0 -290z"/>
<path d="M870 4495 l0 -435 145 0 145 0 0 290 0 290 145 0 145 0 0 145 0 145
-290 0 -290 0 0 -435z"/>
<path d="M2030 4495 l0 -145 145 0 145 0 0 145 0 145 -145 0 -145 0 0 -145z"/>
<path d="M290 3335 l0 -725 145 0 145 0 0 725 0 725 -145 0 -145 0 0 -725z"/>
<path d="M1450 3915 l0 -145 145 0 145 0 0 145 0 145 -145 0 -145 0 0 -145z"/>
<path d="M3190 3915 l0 -145 145 0 145 0 0 145 0 145 -145 0 -145 0 0 -145z"/>
<path d="M290 1305 l0 -1015 1015 0 1015 0 0 1015 0 1015 -1015 0 -1015 0 0
-1015z m1740 0 l0 -725 -725 0 -725 0 0 725 0 725 725 0 725 0 0 -725z"/>
<path d="M870 1305 l0 -435 435 0 435 0 0 435 0 435 -435 0 -435 0 0 -435z"/>
</g>
</svg>
